<svg version="1.1" xmlns="http://www.w3.org/2000/svg" width="775" height="1045" viewBox="0 0 775 1045" preserveAspectRatio="xMidYMid meet">
<path d="M0 0 C255.75 0 511.5 0 775 0 C775 344.85 775 689.7 775 1045 C519.25 1045 263.5 1045 0 1045 C0 700.15 0 355.3 0 0 Z " fill="#A09684" transform="translate(0,0)"/>
<path d="M0 0 C41.58 0 83.16 0 126 0 C126 13.86 126 27.72 126 42 C142.83 42 159.66 42 177 42 C177 58.83 177 75.66 177 93 C160.17 93 143.34 93 126 93 C126 109.83 126 126.66 126 144 C109.17 144 92.34 144 75 144 C75 127.17 75 110.34 75 93 C50.25 93 25.5 93 0 93 C0 62.31 0 31.62 0 0 Z " fill="#656565" transform="translate(0,0)"/>
<path d="M0 0 C15.18 0 30.36 0 46 0 C46 47.52 46 95.04 46 144 C30.82 144 15.64 144 0 144 C0 127.17 0 110.34 0 93 C-30.36 93 -60.72 93 -92 93 C-92 76.17 -92 59.34 -92 42 C-61.64 42 -31.28 42 0 42 C0 28.14 0 14.28 0 0 Z " fill="#646564" transform="translate(729,0)"/>
<path d="M0 0 C50.49 0 100.98 0 153 0 C153 13.86 153 27.72 153 42 C136.17 42 119.34 42 102 42 C102 58.83 102 75.66 102 93 C85.17 93 68.34 93 51 93 C51 76.17 51 59.34 51 42 C34.17 42 17.34 42 0 42 C0 28.14 0 14.28 0 0 Z " fill="#656565" transform="translate(432,0)"/>
<path d="M0 0 C0.7368 14.011 0.2095 27.9653 0 42 C16.83 42 33.66 42 51 42 C51 53.88 51 65.76 51 78 C0.51 78 -49.98 78 -102 78 C-102 66.12 -102 54.24 -102 42 C-85.17 42 -68.34 42 -51 42 C-51 28.8 -51 15.6 -51 2 C-47.865 1.8763 -44.73 1.7525 -41.5 1.625 C-32.9528 1.2483 -24.4584 0.6407 -15.9375 -0.125 C-5 -1 -5 -1 0 0 Z " fill="#FAF9F9" transform="translate(534,967)"/>
<path d="M0 0 C1.98 0.495 1.98 0.495 4 1 C4 1.66 4 2.32 4 3 C5.65 3.33 7.3 3.66 9 4 C11.64 5.65 14.28 7.3 17 9 C17 9.66 17 10.32 17 11 C18.98 11.99 18.98 11.99 21 13 C20.67 16.96 20.34 20.92 20 25 C3.17 25 -13.66 25 -31 25 C-31 41.83 -31 58.66 -31 76 C-47.83 76 -64.66 76 -82 76 C-82 59.17 -82 42.34 -82 25 C-98.83 25 -115.66 25 -133 25 C-133 18.3268 -133 11.6536 -133 4.9805 C-133.33 3.0069 -133.66 1.0334 -134 -1 C-136.64 -1.99 -139.28 -2.98 -142 -4 C-142 -4.99 -142 -5.98 -142 -7 C-139.36 -7 -136.72 -7 -134 -7 C-130.0168 -7.4222 -126.038 -7.8856 -122.0625 -8.375 C-36.2849 -18.1424 -36.2849 -18.1424 0 0 Z " fill="#666565" transform="translate(565,577)"/>
<path d="M0 0 C4.0035 0.2889 8.004 0.6214 12 1 C12 1.66 12 2.32 12 3 C12.99 3 13.98 3 15 3 C15 2.34 15 1.68 15 1 C16.65 1 18.3 1 20 1 C20.495 1.495 20.495 1.495 21 2 C24.63 2 28.26 2 32 2 C37.6681 2.3085 43.3351 2.6374 49 3 C49 2.34 49 1.68 49 1 C51.35 1.0116 53.6999 1.0232 56.1211 1.0352 C59.1955 1.0442 62.2699 1.0532 65.4375 1.0625 C70.0143 1.0799 70.0143 1.0799 74.6836 1.0977 C83.1314 1.1354 83.1314 1.1354 92 0 C94.97 0 97.94 0 101 0 C101 14.52 101 29.04 101 44 C84.17 44 67.34 44 50 44 C50 48.62 50 53.24 50 58 C49.505 58.99 49.505 58.99 49 60 C33.9759 61.2292 18.8705 61.3554 3.8047 61.7188 C-4.0513 61.8869 -4.0513 61.8869 -12 63 C-13.485 64.485 -13.485 64.485 -15 66 C-15.66 66 -16.32 66 -17 66 C-17 67.65 -17 69.3 -17 71 C-17.66 71 -18.32 71 -19 71 C-20.1759 78.9794 -20.1759 78.9794 -19.9375 87 C-20.9481 89.31 -21.9588 91.62 -23 94 C-31.9823 95.4482 -39.8261 94.6713 -49 94 C-49 77.17 -49 60.34 -49 43 C-33.16 43 -17.32 43 -1 43 C-1.0206 36.0906 -1.0412 29.1812 -1.0625 22.0625 C-1.0835 15.0417 -1.0738 8.0205 -1 1 C-0.67 0.67 -0.34 0.34 0 0 Z " fill="#B3B2B3" transform="translate(280,813)"/>
<path d="M0 0 C14.85 0 29.7 0 45 0 C45 16.83 45 33.66 45 51 C30.15 51 15.3 51 0 51 C0 67.83 0 84.66 0 102 C14.85 102 29.7 102 45 102 C46.2385 137.4519 46.2385 137.4519 46 152 C45.67 152.33 45.34 152.66 45 153 C37.4752 153.0739 29.9619 153.0918 22.4375 153.0625 C15.0331 153.0419 7.6287 153.0213 0 153 C0 169.17 0 185.34 0 202 C-0.33 202 -0.66 202 -1 202 C-2.0625 169.1606 -2.1182 136.3526 -2.0625 103.5 C-2.0575 98.2865 -2.0529 93.0729 -2.0488 87.8594 C-2.0379 75.2396 -2.0208 62.6198 -2 50 C-1.34 50 -0.68 50 0 50 C0 33.5 0 17 0 0 Z " fill="#666563" transform="translate(228,398)"/>
<path d="M0 0 C30.36 0 60.72 0 92 0 C92 16.83 92 33.66 92 51 C61.31 51 30.62 51 -1 51 C-0.67 34.17 -0.34 17.34 0 0 Z " fill="#646464" transform="translate(637,93)"/>
<path d="M0 0 C30.36 0 60.72 0 92 0 C92 16.83 92 33.66 92 51 C61.64 51 31.28 51 0 51 C0 34.17 0 17.34 0 0 Z " fill="#FBFBFA" transform="translate(637,42)"/>
<path d="M0 0 C0 9.57 0 19.14 0 29 C-16.83 29 -33.66 29 -51 29 C-51 40.88 -51 52.76 -51 65 C-75.75 65 -100.5 65 -126 65 C-126 53.45 -126 41.9 -126 30 C-101.3392 28.6935 -76.6869 28.9118 -52 29 C-52 19.76 -52 10.52 -52 1 C-45.7709 0.8312 -39.5417 0.6651 -33.3125 0.5 C-29.8436 0.4072 -26.3748 0.3144 -22.8008 0.2188 C-15.2021 0.0491 -7.6006 0 0 0 Z " fill="#F2F2F0" transform="translate(126,980)"/>
<path d="M0 0 C30.36 0 60.72 0 92 0 C92 13.86 92 27.72 92 42 C79.0585 42.0229 66.1171 42.0428 53.1755 42.0549 C48.7686 42.06 44.3617 42.0668 39.9548 42.0754 C33.6379 42.0875 27.3209 42.0932 21.0039 42.0977 C17.1967 42.1029 13.3896 42.1081 9.467 42.1135 C6.6729 42.0761 3.8788 42.0386 1 42 C0.67 41.67 0.34 41.34 0 41 C0 27.47 0 13.94 0 0 Z " fill="#646463" transform="translate(637,0)"/>
<path d="M0 0 C1.98 0.495 1.98 0.495 4 1 C4 1.66 4 2.32 4 3 C5.65 3.33 7.3 3.66 9 4 C11.64 5.65 14.28 7.3 17 9 C17 9.66 17 10.32 17 11 C18.98 11.99 18.98 11.99 21 13 C20.67 16.96 20.34 20.92 20 25 C3.17 25 -13.66 25 -31 25 C-31 16.42 -31 7.84 -31 -1 C-32.9104 -0.8466 -34.8208 -0.6932 -36.7891 -0.5352 C-45.986 0.0643 -55.1616 0.3338 -64.375 0.5625 C-67.6827 0.6463 -70.9905 0.7301 -74.3984 0.8164 C-76.907 0.877 -79.4155 0.9376 -82 1 C-82 8.92 -82 16.84 -82 25 C-98.83 25 -115.66 25 -133 25 C-133 18.3268 -133 11.6536 -133 4.9805 C-133.33 3.0069 -133.66 1.0334 -134 -1 C-136.64 -1.99 -139.28 -2.98 -142 -4 C-142 -4.99 -142 -5.98 -142 -7 C-139.36 -7 -136.72 -7 -134 -7 C-130.0168 -7.4222 -126.038 -7.8856 -122.0625 -8.375 C-36.2849 -18.1424 -36.2849 -18.1424 0 0 Z " fill="#5B554F" transform="translate(565,577)"/>
<path d="M0 0 C30.03 0 60.06 0 91 0 C91 16.5 91 33 91 50 C86.8131 50.1031 82.6263 50.2063 78.3125 50.3125 C74.7798 50.3995 74.7798 50.3995 71.1758 50.4883 C69.1378 50.3271 67.0998 50.166 65 50 C60 45 60 45 58 41 C55.36 39.35 52.72 37.7 50 36 C50 35.34 50 34.68 50 34 C49.34 34 48.68 34 48 34 C48 33.34 48 32.68 48 32 C47.34 32 46.68 32 46 32 C46 31.34 46 30.68 46 30 C44.68 29.34 43.36 28.68 42 28 C36.6509 25.0283 31.3129 22.036 26 19 C23.36 18.01 20.72 17.02 18 16 C14.7 14.35 11.4 12.7 8 11 C8 10.34 8 9.68 8 9 C5.36 8.67 2.72 8.34 0 8 C0 5.36 0 2.72 0 0 Z " fill="#FBFBF9" transform="translate(637,144)"/>
<path d="M0 0 C16.83 0 33.66 0 51 0 C51 16.5 51 33 51 50 C62.22 50.33 73.44 50.66 85 51 C84.01 51.99 84.01 51.99 83 53 C72.2586 54.5719 61.8486 55.2107 51 55 C51 53.68 51 52.36 51 51 C34.17 51 17.34 51 0 51 C0 34.17 0 17.34 0 0 Z " fill="#FDFCFC" transform="translate(432,806)"/>
<path d="M0 0 C32.34 0 64.68 0 98 0 C98 5.28 98 10.56 98 16 C82.9419 16.967 67.8867 17.355 52.8047 17.7188 C44.9487 17.8869 44.9487 17.8869 37 19 C36.01 19.99 35.02 20.98 34 22 C33.34 22 32.68 22 32 22 C32 23.65 32 25.3 32 27 C31.34 27 30.68 27 30 27 C28.8241 34.9794 28.8241 34.9794 29.0625 43 C28.0519 45.31 27.0412 47.62 26 50 C17.0177 51.4482 9.1739 50.6713 0 50 C0 33.5 0 17 0 0 Z " fill="#FAFAF7" transform="translate(231,857)"/>
<path d="M0 0 C16.83 0 33.66 0 51 0 C51.33 17.16 51.66 34.32 52 52 C34.84 51.67 17.68 51.34 0 51 C0 34.17 0 17.34 0 0 Z " fill="#646464" transform="translate(126,93)"/>
<path d="M0 0 C16.83 0 33.66 0 51 0 C51 16.83 51 33.66 51 51 C34.17 51 17.34 51 0 51 C0 34.17 0 17.34 0 0 Z " fill="#FBFCFB" transform="translate(432,602)"/>
<path d="M0 0 C16.83 0 33.66 0 51 0 C51 16.83 51 33.66 51 51 C34.17 51 17.34 51 0 51 C0 34.17 0 17.34 0 0 Z " fill="#F9F9F8" transform="translate(75,93)"/>
<path d="M0 0 C16.83 0 33.66 0 51 0 C51 16.83 51 33.66 51 51 C34.17 51 17.34 51 0 51 C0 34.17 0 17.34 0 0 Z " fill="#656564" transform="translate(24,93)"/>
<path d="M0 0 C16.83 0 33.66 0 51 0 C51 16.83 51 33.66 51 51 C34.17 51 17.34 51 0 51 C0 34.17 0 17.34 0 0 Z " fill="#FAFAF9" transform="translate(534,42)"/>
<path d="M0 0 C16.83 0 33.66 0 51 0 C51 16.83 51 33.66 51 51 C34.17 51 17.34 51 0 51 C0 34.17 0 17.34 0 0 Z " fill="#FAFAFA" transform="translate(432,42)"/>
<path d="M0 0 C16.83 0 33.66 0 51 0 C51 16.83 51 33.66 51 51 C34.17 51 17.34 51 0 51 C0 34.17 0 17.34 0 0 Z " fill="#F9F9F8" transform="translate(126,42)"/>
<path d="M0 0 C16.83 0 33.66 0 51 0 C51 16.83 51 33.66 51 51 C34.17 51 17.34 51 0 51 C0 34.17 0 17.34 0 0 Z " fill="#646564" transform="translate(75,42)"/>
<path d="M0 0 C16.83 0 33.66 0 51 0 C51 16.83 51 33.66 51 51 C34.17 51 17.34 51 0 51 C0 34.17 0 17.34 0 0 Z " fill="#FAFAF9" transform="translate(24,42)"/>
<path d="M0 0 C7.7953 -0.1008 15.5798 -0.1386 23.375 -0.125 C25.587 -0.1289 27.7991 -0.1327 30.0781 -0.1367 C46.6202 -0.1266 46.6202 -0.1266 50 1 C50.2226 9.3859 50.2755 17.6795 50.1875 26.0625 C50.1256 34.2919 50.0638 42.5213 50 51 C33.17 51 16.34 51 -1 51 C-1.0206 42.7706 -1.0412 34.5412 -1.0625 26.0625 C-1.0716 23.4613 -1.0807 20.86 -1.0901 18.1799 C-1.0971 12.4532 -1.0507 6.7265 -1 1 C-0.67 0.67 -0.34 0.34 0 0 Z " fill="#656565" transform="translate(484,398)"/>
<path d="M0 0 C16.83 0 33.66 0 51 0 C51 16.83 51 33.66 51 51 C34.17 51 17.34 51 0 51 C0 34.17 0 17.34 0 0 Z " fill="#636363" transform="translate(432,93)"/>
<path d="M0 0 C0.66 0 1.32 0 2 0 C2 0.66 2 1.32 2 2 C0.02 3.65 -1.96 5.3 -4 7 C-1.6616 7.0606 0.6767 7.1212 3.0859 7.1836 C6.1513 7.2674 9.2167 7.3512 12.375 7.4375 C16.9344 7.5593 16.9344 7.5593 21.5859 7.6836 C27.7353 7.9148 33.8769 8.3877 40 9 C40 25.5 40 42 40 59 C23.5 59 7 59 -10 59 C-10 43.49 -10 27.98 -10 12 C-11.32 12.33 -12.64 12.66 -14 13 C-9.83 8.83 -5.4381 4.8834 -1 1 C-0.67 0.67 -0.34 0.34 0 0 Z " fill="#646565" transform="translate(697,899)"/>
<path d="M0 0 C16.83 0 33.66 0 51 0 C51 16.5 51 33 51 50 C34.17 50 17.34 50 0 50 C0 33.5 0 17 0 0 Z " fill="#646464" transform="translate(432,755)"/>
<path d="M0 0 C16.83 0 33.66 0 51 0 C51 16.5 51 33 51 50 C34.17 50 17.34 50 0 50 C0 33.5 0 17 0 0 Z " fill="#FDFDFC" transform="translate(432,704)"/>
<path d="M0 0 C16.83 0 33.66 0 51 0 C51 16.5 51 33 51 50 C34.17 50 17.34 50 0 50 C0 33.5 0 17 0 0 Z " fill="#636363" transform="translate(432,653)"/>
<path d="M0 0 C16.5 0 33 0 50 0 C50 16.83 50 33.66 50 51 C33.5 51 17 51 0 51 C0 34.17 0 17.34 0 0 Z " fill="#FBFBFB" transform="translate(534,602)"/>
<path d="M0 0 C16.5 0 33 0 50 0 C50 16.83 50 33.66 50 51 C33.5 51 17 51 0 51 C0 34.17 0 17.34 0 0 Z " fill="#656565" transform="translate(24,602)"/>
<path d="M0 0 C16.5 0 33 0 50 0 C50 16.83 50 33.66 50 51 C33.5 51 17 51 0 51 C0 34.17 0 17.34 0 0 Z " fill="#FBFBF9" transform="translate(24,551)"/>
<path d="M0 0 C16.5 0 33 0 50 0 C50 16.83 50 33.66 50 51 C33.5 51 17 51 0 51 C0 34.17 0 17.34 0 0 Z " fill="#656464" transform="translate(24,500)"/>
<path d="M0 0 C16.5 0 33 0 50 0 C50 16.83 50 33.66 50 51 C33.5 51 17 51 0 51 C0 34.17 0 17.34 0 0 Z " fill="#FAFAF9" transform="translate(24,449)"/>
<path d="M0 0 C16.83 0 33.66 0 51 0 C51 16.5 51 33 51 50 C34.17 50 17.34 50 0 50 C0 33.5 0 17 0 0 Z " fill="#FBFBFA" transform="translate(432,399)"/>
<path d="M0 0 C16.83 0 33.66 0 51 0 C51 16.5 51 33 51 50 C34.17 50 17.34 50 0 50 C0 33.5 0 17 0 0 Z " fill="#646463" transform="translate(534,348)"/>
<path d="M0 0 C16.83 0 33.66 0 51 0 C51 16.5 51 33 51 50 C34.17 50 17.34 50 0 50 C0 33.5 0 17 0 0 Z " fill="#656565" transform="translate(432,348)"/>
<path d="M0 0 C16.83 0 33.66 0 51 0 C51 16.5 51 33 51 50 C34.17 50 17.34 50 0 50 C0 33.5 0 17 0 0 Z " fill="#FCFCFA" transform="translate(534,297)"/>
<path d="M0 0 C16.83 0 33.66 0 51 0 C51 16.5 51 33 51 50 C34.17 50 17.34 50 0 50 C0 33.5 0 17 0 0 Z " fill="#FDFDFB" transform="translate(432,297)"/>
<path d="M0 0 C16.83 0 33.66 0 51 0 C51 16.5 51 33 51 50 C34.17 50 17.34 50 0 50 C0 33.5 0 17 0 0 Z " fill="#656565" transform="translate(432,246)"/>
<path d="M0 0 C16.83 0 33.66 0 51 0 C51 16.5 51 33 51 50 C34.17 50 17.34 50 0 50 C0 33.5 0 17 0 0 Z " fill="#646463" transform="translate(75,144)"/>
<path d="M0 0 C16.83 0 33.66 0 51 0 C51 16.5 51 33 51 50 C34.17 50 17.34 50 0 50 C0 33.5 0 17 0 0 Z " fill="#FBFBFA" transform="translate(177,93)"/>
<path d="M0 0 C16.5 0 33 0 50 0 C50 16.83 50 33.66 50 51 C33.5 51 17 51 0 51 C0 34.17 0 17.34 0 0 Z " fill="#656665" transform="translate(586,42)"/>
<path d="M0 0 C16.5 0 33 0 50 0 C50 16.5 50 33 50 50 C33.17 50 16.34 50 -1 50 C-1.0206 42.8637 -1.0412 35.7275 -1.0625 28.375 C-1.0716 26.1325 -1.0807 23.89 -1.0901 21.5796 C-1.1111 6.6667 -1.1111 6.6667 0 0 Z " fill="#646565" transform="translate(484,297)"/>
<path d="M0 0 C16.83 0 33.66 0 51 0 C51.0655 16.7781 51.0469 33.2501 50 50 C33.5 50 17 50 0 50 C0 33.5 0 17 0 0 Z " fill="#FBFBF9" transform="translate(24,144)"/>
<path d="M0 0 C16.83 0 33.66 0 51 0 C51 16.5 51 33 51 50 C34.5 50 18 50 1 50 C0.3068 33.2755 0 16.7649 0 0 Z " fill="#636362" transform="translate(483,704)"/>
<path d="M0 0 C16.5 0 33 0 50 0 C50.2269 8.0438 50.4538 16.0875 50.6875 24.375 C50.7876 26.9149 50.8878 29.4549 50.991 32.0718 C51.0742 38.0859 51.0742 38.0859 50 49 C32.9716 52.0961 16.282 50.5593 -1 50 C-0.67 33.5 -0.34 17 0 0 Z " fill="#646464" transform="translate(484,806)"/>
<path d="M0 0 C16.5 0 33 0 50 0 C50 16.5 50 33 50 50 C33.5 50 17 50 0 50 C0 33.5 0 17 0 0 Z " fill="#FDFDFC" transform="translate(687,959)"/>
<path d="M0 0 C16.5 0 33 0 50 0 C50 16.5 50 33 50 50 C33.5 50 17 50 0 50 C0 33.5 0 17 0 0 Z " fill="#646465" transform="translate(636,959)"/>
<path d="M0 0 C16.5 0 33 0 50 0 C50 16.5 50 33 50 50 C33.5 50 17 50 0 50 C0 33.5 0 17 0 0 Z " fill="#FCFBFA" transform="translate(585,959)"/>
<path d="M0 0 C16.5 0 33 0 50 0 C50 16.5 50 33 50 50 C33.5 50 17 50 0 50 C0 33.5 0 17 0 0 Z " fill="#FCFCFA" transform="translate(24,857)"/>
<path d="M0 0 C16.5 0 33 0 50 0 C50 16.5 50 33 50 50 C33.5 50 17 50 0 50 C0 33.5 0 17 0 0 Z " fill="#636362" transform="translate(534,755)"/>
<path d="M0 0 C16.5 0 33 0 50 0 C50 16.5 50 33 50 50 C33.5 50 17 50 0 50 C0 33.5 0 17 0 0 Z " fill="#FCFCFB" transform="translate(484,755)"/>
<path d="M0 0 C16.5 0 33 0 50 0 C50 16.5 50 33 50 50 C33.5 50 17 50 0 50 C0 33.5 0 17 0 0 Z " fill="#FCFBFA" transform="translate(534,704)"/>
<path d="M0 0 C16.5 0 33 0 50 0 C50 16.5 50 33 50 50 C33.5 50 17 50 0 50 C0 33.5 0 17 0 0 Z " fill="#656564" transform="translate(24,704)"/>
<path d="M0 0 C16.5 0 33 0 50 0 C50 16.5 50 33 50 50 C33.5 50 17 50 0 50 C0 33.5 0 17 0 0 Z " fill="#656564" transform="translate(534,653)"/>
<path d="M0 0 C16.5 0 33 0 50 0 C50 16.5 50 33 50 50 C33.5 50 17 50 0 50 C0 33.5 0 17 0 0 Z " fill="#FCFCFB" transform="translate(484,653)"/>
<path d="M0 0 C16.5 0 33 0 50 0 C50 16.5 50 33 50 50 C33.5 50 17 50 0 50 C0 33.5 0 17 0 0 Z " fill="#636362" transform="translate(24,399)"/>
<path d="M0 0 C16.5 0 33 0 50 0 C50 16.5 50 33 50 50 C33.5 50 17 50 0 50 C0 33.5 0 17 0 0 Z " fill="#FCFCFB" transform="translate(24,348)"/>
<path d="M0 0 C16.5 0 33 0 50 0 C50 16.5 50 33 50 50 C33.5 50 17 50 0 50 C0 33.5 0 17 0 0 Z " fill="#636363" transform="translate(24,297)"/>
<path d="M0 0 C16.5 0 33 0 50 0 C50 16.5 50 33 50 50 C33.5 50 17 50 0 50 C0 33.5 0 17 0 0 Z " fill="#FCFCFA" transform="translate(484,246)"/>
<path d="M0 0 C16.5 0 33 0 50 0 C50 16.5 50 33 50 50 C41.9356 50.0206 33.8713 50.0412 25.5625 50.0625 C23.0135 50.0716 20.4644 50.0807 17.8381 50.0901 C12.2253 50.0971 6.6126 50.0507 1 50 C0.67 49.67 0.34 49.34 0 49 C-0.074 40.8089 -0.0918 32.6283 -0.0625 24.4375 C-0.0419 16.3731 -0.0213 8.3087 0 0 Z " fill="#FCFCFA" transform="translate(484,348)"/>
<path d="M0 0 C16.5 0 33 0 50 0 C50 16.5 50 33 50 50 C41.9356 50.0619 33.8713 50.1237 25.5625 50.1875 C23.0135 50.2148 20.4644 50.2421 17.8381 50.2703 C12.2247 50.2914 6.6114 50.152 1 50 C-1.6542 42.0375 -0.0942 31.7547 -0.0625 23.3125 C-0.0419 15.6194 -0.0212 7.9262 0 0 Z " fill="#656565" transform="translate(24,806)"/>
<path d="M0 0 C16.5 0 33 0 50 0 C50 16.5 50 33 50 50 C9.9609 50.3203 9.9609 50.3203 0 47 C-0.2227 39.112 -0.2756 31.3223 -0.1875 23.4375 C-0.1256 15.7031 -0.0638 7.9688 0 0 Z " fill="#FCFBFB" transform="translate(586,93)"/>
<path d="M0 0 C1.32 0.66 2.64 1.32 4 2 C4 2.66 4 3.32 4 4 C5.32 4.66 6.64 5.32 8 6 C15.0705 11.8921 19.4475 18.0332 24 26 C24.5434 36.6878 24.172 47.2917 24 58 C7.17 58 -9.66 58 -27 58 C-27 41.5 -27 25 -27 8 C-16.77 8 -6.54 8 4 8 C4 7.34 4 6.68 4 6 C2.68 5.67 1.36 5.34 0 5 C-0.33 4.01 -0.66 3.02 -1 2 C-0.67 1.34 -0.34 0.68 0 0 Z " fill="#656463" transform="translate(561,238)"/>
<path d="M0 0 C15.84 0.33 31.68 0.66 48 1 C48 17.83 48 34.66 48 52 C24.5625 51.75 24.5625 51.75 17.1545 51.6396 C11.7684 51.6114 6.3824 51.7974 1 52 C0.67 53.32 0.34 54.64 0 56 C0 37.52 0 19.04 0 0 Z " fill="#666563" transform="translate(226,601)"/>
<path d="M0 0 C16.17 0 32.34 0 49 0 C49 16.5 49 33 49 50 C32.83 50 16.66 50 0 50 C0 33.5 0 17 0 0 Z " fill="#FCFCFB" transform="translate(25,755)"/>
<path d="M0 0 C16.17 0 32.34 0 49 0 C49 16.5 49 33 49 50 C32.83 50 16.66 50 0 50 C0 33.5 0 17 0 0 Z " fill="#FCFBFA" transform="translate(25,653)"/>
<path d="M0 0 C15.18 0 30.36 0 46 0 C46 16.83 46 33.66 46 51 C30.82 51 15.64 51 0 51 C0 34.17 0 17.34 0 0 Z " fill="#FBFBFA" transform="translate(729,93)"/>
<path d="M0 0 C16.5 0 33 0 50 0 C50 14.52 50 29.04 50 44 C44.06 44.33 38.12 44.66 32 45 C31.01 45.66 30.02 46.32 29 47 C22.002 47.3727 15.0018 47.7065 8 48 C7.01 48.495 7.01 48.495 6 49 C4.02 49 2.04 49 0 49 C0 32.83 0 16.66 0 0 Z " fill="#FCFCFA" transform="translate(484,93)"/>
<path d="M0 0 C16.5 0 33 0 50 0 C50 13.86 50 27.72 50 42 C46.04 42.66 42.08 43.32 38 44 C27.6552 45.9473 17.3221 47.9356 7 50 C4.69 50 2.38 50 0 50 C0 33.5 0 17 0 0 Z " fill="#FBFBF9" transform="translate(126,144)"/>
<path d="M0 0 C15.18 0 30.36 0 46 0 C46 16.5 46 33 46 50 C30.82 50 15.64 50 0 50 C0 33.5 0 17 0 0 Z " fill="#656564" transform="translate(729,144)"/>
<path d="M0 0 C14.85 0 29.7 0 45 0 C45 16.83 45 33.66 45 51 C30.15 51 15.3 51 0 51 C0 34.17 0 17.34 0 0 Z " fill="#FCFBF8" transform="translate(228,551)"/>
<path d="M0 0 C15.18 0 30.36 0 46 0 C46 16.5 46 33 46 50 C13.5781 50.9766 13.5781 50.9766 4 50 C-2.4922 33.7696 -0.2242 17.376 0 0 Z " fill="#FCFCFB" transform="translate(729,195)"/>
<path d="M0 0 C14.85 0 29.7 0 45 0 C45 16.5 45 33 45 50 C30.15 50 15.3 50 0 50 C0 33.5 0 17 0 0 Z " fill="#FBFAF8" transform="translate(228,653)"/>
<path d="M0 0 C7.0744 -0.0206 14.1488 -0.0412 21.4375 -0.0625 C24.7912 -0.0762 24.7912 -0.0762 28.2126 -0.0901 C33.1419 -0.0971 38.0711 -0.0506 43 0 C43.495 0.495 43.495 0.495 44 1 C44.2671 8.4191 44.4712 15.8284 44.625 23.25 C44.6766 25.3499 44.7281 27.4498 44.7812 29.6133 C45.125 45.375 45.125 45.375 44 51 C36.5469 51.3743 29.3815 51.4606 21.9375 51.3125 C14.6981 51.2094 7.4588 51.1062 0 51 C0 34.17 0 17.34 0 0 Z " fill="#FAFAF8" transform="translate(228,449)"/>
<path d="M0 0 C16.83 0 33.66 0 51 0 C51 7.26 51 14.52 51 22 C45.7973 29.8041 40.6446 37.3554 34 44 C33.34 44 32.68 44 32 44 C31.34 45.32 30.68 46.64 30 48 C29.34 48 28.68 48 28 48 C28 48.66 28 49.32 28 50 C18.76 50 9.52 50 0 50 C0 33.5 0 17 0 0 Z " fill="#FBFBF9" transform="translate(534,399)"/>
<path d="M0 0 C14.85 0 29.7 0 45 0 C46.1949 16.7286 46.0612 33.2282 46 50 C31.15 50 16.3 50 1 50 C0.67 33.5 0.34 17 0 0 Z " fill="#FCFCF9" transform="translate(229,755)"/>
<path d="M0 0 C9.0183 -0.7334 17.9449 -0.2106 27 0 C27 16.83 27 33.66 27 51 C10.5 51 -6 51 -23 51 C-23 43.74 -23 36.48 -23 29 C-21.35 27.35 -19.7 25.7 -18 24 C-16.68 22.35 -15.36 20.7 -14 19 C-13.34 19 -12.68 19 -12 19 C-11.67 17.68 -11.34 16.36 -11 15 C-10.34 15 -9.68 15 -9 15 C-9 14.34 -9 13.68 -9 13 C-7.68 11.68 -6.36 10.36 -5 9 C-4.34 7.68 -3.68 6.36 -3 5 C-2.34 5 -1.68 5 -1 5 C-0.67 3.35 -0.34 1.7 0 0 Z " fill="#FBFBFA" transform="translate(710,449)"/>
<path d="M0 0 C32.7148 -0.0977 32.7148 -0.0977 42 0 C42.495 0.495 42.495 0.495 43 1 C46.3047 38.0859 46.3047 38.0859 42 51 C27.9607 51.5494 14.047 50.5888 0 50 C0 33.5 0 17 0 0 Z " fill="#656462" transform="translate(228,195)"/>
<path d="M0 0 C16.83 0 33.66 0 51 0 C51 13.86 51 27.72 51 42 C34.17 42 17.34 42 0 42 C0 28.14 0 14.28 0 0 Z " fill="#656464" transform="translate(534,0)"/>
<path d="M0 0 C16.83 0 33.66 0 51 0 C51 13.86 51 27.72 51 42 C34.17 42 17.34 42 0 42 C0 28.14 0 14.28 0 0 Z " fill="#636363" transform="translate(126,0)"/>
<path d="M0 0 C16.83 0 33.66 0 51 0 C51 13.86 51 27.72 51 42 C34.17 42 17.34 42 0 42 C0 28.14 0 14.28 0 0 Z " fill="#FBFAFA" transform="translate(75,0)"/>
<path d="M0 0 C16.83 0 33.66 0 51 0 C51 13.86 51 27.72 51 42 C42.6875 42.0268 34.375 42.0467 26.0625 42.0625 C23.6861 42.0709 21.3097 42.0793 18.8613 42.0879 C12.9075 42.0964 6.9536 42.0527 1 42 C0.67 41.67 0.34 41.34 0 41 C-0.1472 27.3329 -0.0418 13.6681 0 0 Z " fill="#FAFAF9" transform="translate(483,0)"/>
<path d="M0 0 C0 14.19 0 28.38 0 43 C-16.83 43 -33.66 43 -51 43 C-51 29.47 -51 15.94 -51 2 C-46.05 2 -41.1 2 -36 2 C-29.052 1.5734 -22.1248 1.0103 -15.1875 0.4375 C-10.1355 0.0803 -5.0646 0 0 0 Z " fill="#FCFCFA" transform="translate(381,813)"/>
<path d="M0 0 C13.86 0 27.72 0 42 0 C42 16.5 42 33 42 50 C28.14 50 14.28 50 0 50 C0 33.5 0 17 0 0 Z " fill="#FCFCFA" transform="translate(228,348)"/>
<path d="M0 0 C13.86 0 27.72 0 42 0 C42 16.5 42 33 42 50 C28.14 50 14.28 50 0 50 C0 33.5 0 17 0 0 Z " fill="#FBFBF9" transform="translate(228,246)"/>
<path d="M0 0 C0.7368 14.011 0.2095 27.9653 0 42 C-16.83 42 -33.66 42 -51 42 C-51 28.8 -51 15.6 -51 2 C-47.865 1.8763 -44.73 1.7525 -41.5 1.625 C-32.9528 1.2483 -24.4584 0.6407 -15.9375 -0.125 C-5 -1 -5 -1 0 0 Z " fill="#FBFAF9" transform="translate(534,967)"/>
<path d="M0 0 C13.53 0 27.06 0 41 0 C41.33 16.5 41.66 33 42 50 C28.14 50 14.28 50 0 50 C0 33.5 0 17 0 0 Z " fill="#FAF9F7" transform="translate(228,144)"/>
<path d="M0 0 C16.5 0 33 0 50 0 C50 13.53 50 27.06 50 41 C33.5 41 17 41 0 41 C0 27.47 0 13.94 0 0 Z " fill="#FDFDFC" transform="translate(586,0)"/>
<path d="M0 0 C13.53 0 27.06 0 41 0 C41 11.3903 40.9467 22.1749 40.0625 33.4375 C39.8885 35.7256 39.7145 38.0137 39.5352 40.3711 C39 46 39 46 38 50 C25.3254 50.5887 12.6914 50.1675 0 50 C0 33.5 0 17 0 0 Z " fill="#656463" transform="translate(585,704)"/>
<path d="M0 0 C16.83 0 33.66 0 51 0 C51.8789 24.8047 51.8789 24.8047 51 32 C48.03 32.66 45.06 33.32 42 34 C40.68 34.99 39.36 35.98 38 37 C37.67 38.32 37.34 39.64 37 41 C30.819 41.2948 24.625 41.3339 18.4375 41.25 C12.3531 41.1675 6.2688 41.085 0 41 C0 27.47 0 13.94 0 0 Z " fill="#FBFBFA" transform="translate(177,0)"/>
<path d="M0 0 C15.18 0 30.36 0 46 0 C46 13.86 46 27.72 46 42 C30.82 42 15.64 42 0 42 C0 28.14 0 14.28 0 0 Z " fill="#FBFBFA" transform="translate(729,0)"/>
<path d="M0 0 C12.54 0 25.08 0 38 0 C38 16.5 38 33 38 50 C25.46 50 12.92 50 0 50 C0 33.5 0 17 0 0 Z " fill="#FBFAFA" transform="translate(737,399)"/>
<path d="M0 0 C12.21 0 24.42 0 37 0 C37 16.83 37 33.66 37 51 C24.79 51 12.58 51 0 51 C0 34.17 0 17.34 0 0 Z " fill="#FBFBFA" transform="translate(738,500)"/>
<path d="M0 0 C12.21 0 24.42 0 37 0 C37 16.83 37 33.66 37 51 C24.79 51 12.58 51 0 51 C0 34.17 0 17.34 0 0 Z " fill="#6D6E6C" transform="translate(738,449)"/>
<path d="M0 0 C5.5688 -0.1237 11.1375 -0.2475 16.875 -0.375 C20.0074 -0.4446 23.1398 -0.5142 26.3672 -0.5859 C28.886 -0.3926 31.4048 -0.1992 34 0 C36 6 36 6 37 14 C37.495 14.495 37.495 14.495 38 15 C38.9616 26.7532 39 38.1516 39 50 C26.13 50 13.26 50 0 50 C0 33.5 0 17 0 0 Z " fill="#FCFBFB" transform="translate(585,653)"/>
<path d="M0 0 C12.21 0 24.42 0 37 0 C37 16.5 37 33 37 50 C24.79 50 12.58 50 0 50 C0 33.5 0 17 0 0 Z " fill="#636365" transform="translate(738,959)"/>
<path d="M0 0 C12.21 0 24.42 0 37 0 C37 16.5 37 33 37 50 C24.79 50 12.58 50 0 50 C0 33.5 0 17 0 0 Z " fill="#FCFDFB" transform="translate(738,908)"/>
<path d="M0 0 C12.21 0 24.42 0 37 0 C37 16.5 37 33 37 50 C24.79 50 12.58 50 0 50 C0 33.5 0 17 0 0 Z " fill="#656565" transform="translate(738,857)"/>
<path d="M0 0 C16.83 0 33.66 0 51 0 C51 11.88 51 23.76 51 36 C34.17 36 17.34 36 0 36 C0 24.12 0 12.24 0 0 Z " fill="#FCFCFB" transform="translate(432,1009)"/>
<path d="M0 0 C16.83 0 33.66 0 51 0 C51 11.88 51 23.76 51 36 C34.17 36 17.34 36 0 36 C0 24.12 0 12.24 0 0 Z " fill="#FAFAF9" transform="translate(228,1009)"/>
<path d="M0 0 C16.83 0 33.66 0 51 0 C51 11.88 51 23.76 51 36 C34.17 36 17.34 36 0 36 C0 24.12 0 12.24 0 0 Z " fill="#656566" transform="translate(75,1009)"/>
<path d="M0 0 C16.83 0 33.66 0 51 0 C51 11.88 51 23.76 51 36 C34.17 36 17.34 36 0 36 C0 24.12 0 12.24 0 0 Z " fill="#676768" transform="translate(483,1009)"/>
<path d="M0 0 C16.5 0 33 0 50 0 C50 3.6667 50 7.3333 50 11 C50.6687 19.2258 50.6687 19.2258 53 27 C53 29.97 53 32.94 53 36 C35.18 36 17.36 36 -1 36 C-0.67 24.12 -0.34 12.24 0 0 Z " fill="#F8F8F5" transform="translate(636,1009)"/>
<path d="M0 0 C16.83 0 33.66 0 51 0 C51.0977 27.2461 51.0977 27.2461 51 35 C50.67 35.33 50.34 35.66 50 36 C41.643 36.074 33.2943 36.092 24.9375 36.0625 C22.5572 36.058 20.177 36.0535 17.7246 36.0488 C11.8164 36.037 5.9082 36.0191 0 36 C0 24.12 0 12.24 0 0 Z " fill="#666666" transform="translate(585,1009)"/>
<path d="M0 0 C0 11.88 0 23.76 0 36 C-16.83 36 -33.66 36 -51 36 C-51 24.45 -51 12.9 -51 1 C-33.9814 0.3517 -17.03 -0.1159 0 0 Z " fill="#FDFDFC" transform="translate(381,1009)"/>
<path d="M0 0 C0 12.21 0 24.42 0 37 C-16.5 37 -33 37 -50 37 C-50 25.45 -50 13.9 -50 2 C-33.2646 0.731 -16.7797 -0.2414 0 0 Z " fill="#FBFBF9" transform="translate(431,972)"/>
<path d="M0 0 C16.5 0 33 0 50 0 C50 11.88 50 23.76 50 36 C33.5 36 17 36 0 36 C0 24.12 0 12.24 0 0 Z " fill="#656565" transform="translate(279,1009)"/>
<path d="M0 0 C16.5 0 33 0 50 0 C50 11.88 50 23.76 50 36 C33.5 36 17 36 0 36 C0 24.12 0 12.24 0 0 Z " fill="#FBFBF9" transform="translate(126,1009)"/>
<path d="M0 0 C16.5 0 33 0 50 0 C50 11.88 50 23.76 50 36 C33.5 36 17 36 0 36 C0 24.12 0 12.24 0 0 Z " fill="#666667" transform="translate(381,1009)"/>
<path d="M0 0 C16.5 0 33 0 50 0 C50 11.88 50 23.76 50 36 C33.5 36 17 36 0 36 C0 24.12 0 12.24 0 0 Z " fill="#666667" transform="translate(177,1009)"/>
<path d="M0 0 C16.5 0 33 0 50 0 C50 6.6 50 13.2 50 20 C47.36 21.98 44.72 23.96 42 26 C39.525 28.475 39.525 28.475 37 31 C31.7118 33.7552 26.372 36.412 21 39 C18.5044 40.2994 16.0087 41.5987 13.4375 42.9375 C7 46 7 46 0 47 C0 31.49 0 15.98 0 0 Z " fill="#FBFBF8" transform="translate(534,806)"/>
<path d="M0 0 C8.1459 -0.0268 16.2916 -0.0467 24.4375 -0.0625 C26.7662 -0.0709 29.0949 -0.0793 31.4941 -0.0879 C37.3295 -0.0964 43.1649 -0.0527 49 0 C49.495 0.495 49.495 0.495 50 1 C50.0737 6.8537 50.0835 12.7083 50.0625 18.5625 C50.0535 21.8019 50.0445 25.0413 50.0352 28.3789 C50.0236 30.8939 50.012 33.4088 50 36 C42.3541 36.0536 34.7085 36.0935 27.0625 36.125 C24.8769 36.1418 22.6913 36.1585 20.4395 36.1758 C14.9593 36.1928 9.4791 36.1053 4 36 C1.7783 31.5566 1.727 25.8617 1 21 C0.67 19.35 0.34 17.7 0 16 C-0.0401 10.6668 -0.0434 5.3332 0 0 Z " fill="#5A5046" transform="translate(687,1009)"/>
<path d="M0 0 C0 12.21 0 24.42 0 37 C-16.5 37 -33 37 -50 37 C-50 26.11 -50 15.22 -50 4 C-45.9511 3.9439 -45.9511 3.9439 -41.8203 3.8867 C-38.2909 3.821 -34.7614 3.7552 -31.125 3.6875 C-27.6213 3.6295 -24.1177 3.5715 -20.5078 3.5117 C-14.3104 3.1782 -5.6882 0 0 0 Z " fill="#FCFBF9" transform="translate(227,972)"/>
<path d="M0 0 C0 10.23 0 20.46 0 31 C-16.5 31 -33 31 -50 31 C-50 21.1 -50 11.2 -50 1 C-43.5417 0.8318 -37.0834 0.6655 -30.625 0.5 C-27.0285 0.4072 -23.432 0.3144 -19.7266 0.2188 C-13.1523 0.0709 -6.5759 0 0 0 Z " fill="#FBFAFA" transform="translate(329,978)"/>
<path d="M0 0 C0.66 0 1.32 0 2 0 C2 14.85 2 29.7 2 45 C-14.5 45 -31 45 -48 45 C-48 39.39 -48 33.78 -48 28 C-42 25.3333 -36 22.6667 -30 20 C-28.0406 18.9275 -26.0812 17.855 -24.0625 16.75 C-19 14 -19 14 -17 14 C-16.67 13.01 -16.34 12.02 -16 11 C-13.36 9.02 -10.72 7.04 -8 5 C-7.01 5 -6.02 5 -5 5 C-5 4.34 -5 3.68 -5 3 C-3.35 2.01 -1.7 1.02 0 0 Z " fill="#FCFBFA" transform="translate(684,913)"/>
<path d="M0 0 C9.57 0 19.14 0 29 0 C29 16.5 29 33 29 50 C19.43 50 9.86 50 0 50 C0 33.5 0 17 0 0 Z " fill="#FCFCFA" transform="translate(746,297)"/>
<path d="M0 0 C0 9.57 0 19.14 0 29 C-16.83 29 -33.66 29 -51 29 C-51 19.76 -51 10.52 -51 1 C-44.9376 0.8312 -38.875 0.665 -32.8125 0.5 C-27.7484 0.3608 -27.7484 0.3608 -22.582 0.2188 C-15.0563 0.0469 -7.5277 0 0 0 Z " fill="#FBFBFA" transform="translate(126,980)"/>
<path d="M0 0 C0.99 0 1.98 0 3 0 C3 0.66 3 1.32 3 2 C3.99 2.33 4.98 2.66 6 3 C6 3.66 6 4.32 6 5 C6.66 5 7.32 5 8 5 C9.98 7.31 11.96 9.62 14 12 C14.66 12.33 15.32 12.66 16 13 C16.66 14.98 17.32 16.96 18 19 C18.66 19 19.32 19 20 19 C20 20.32 20 21.64 20 23 C20.66 23 21.32 23 22 23 C22 23.99 22 24.98 22 26 C22.66 26 23.32 26 24 26 C26 32 26 32 26 36 C26.66 36 27.32 36 28 36 C29.0099 39.9975 30.0097 43.9976 31 48 C31.99 48.495 31.99 48.495 33 49 C33.495 54.94 33.495 54.94 34 61 C22.12 61 10.24 61 -2 61 C-2 44.17 -2 27.34 -2 10 C1.3 10 4.6 10 8 10 C8 9.34 8 8.68 8 8 C7.34 8 6.68 8 6 8 C6 7.34 6 6.68 6 6 C5.34 6 4.68 6 4 6 C4 5.34 4 4.68 4 4 C3.34 4 2.68 4 2 4 C2 3.34 2 2.68 2 2 C1.34 2 0.68 2 0 2 C0 1.34 0 0.68 0 0 Z " fill="#666663" transform="translate(587,592)"/>
<path d="M0 0 C9.24 0 18.48 0 28 0 C28 16.83 28 33.66 28 51 C7.7852 51.0977 7.7852 51.0977 2 51 C1.67 50.67 1.34 50.34 1 50 C0.7604 41.6441 0.5758 33.2951 0.4375 24.9375 C0.3943 22.5572 0.3511 20.177 0.3066 17.7246 C0.2001 11.8165 0.0995 5.9082 0 0 Z " fill="#F7F7F4" transform="translate(404,93)"/>
<path d="M0 0 C16.83 0 33.66 0 51 0 C51 13.86 51 27.72 51 42 C46.4006 42.0206 41.8012 42.0412 37.0625 42.0625 C34.4754 42.0741 31.8882 42.0857 29.2227 42.0977 C27.1692 42.0654 25.1157 42.0332 23 42 C22.505 41.505 22.505 41.505 22 41 C21.9264 36.1463 21.9165 31.2917 21.9375 26.4375 C21.9465 23.755 21.9555 21.0724 21.9648 18.3086 C21.9764 16.2268 21.988 14.1449 22 12 C19.03 11.505 19.03 11.505 16 11 C14.68 10.01 13.36 9.02 12 8 C12 7.34 12 6.68 12 6 C9.03 5.67 6.06 5.34 3 5 C2.01 4.01 1.02 3.02 0 2 C0 1.34 0 0.68 0 0 Z " fill="#F8F8F6" transform="translate(381,0)"/>
<path d="M0 0 C12.21 0 24.42 0 37 0 C33.35 14.6 29.1105 25.0851 22 38 C21.2162 40.2069 20.4325 42.4138 19.625 44.6875 C18.4288 46.4406 17.2325 48.1938 16 50 C10.72 50 5.44 50 0 50 C0 33.5 0 17 0 0 Z " fill="#F9F9F5" transform="translate(585,755)"/>
<path d="M0 0 C16.83 0 33.66 0 51 0 C51 6.27 51 12.54 51 19 C37.0376 24.585 22.9078 28.8703 8 31 C7.34 31.33 6.68 31.66 6 32 C4.02 32 2.04 32 0 32 C0 21.44 0 10.88 0 0 Z " fill="#F8F7F4" transform="translate(483,449)"/>
<path d="M0 0 C12.21 0 24.42 0 37 0 C37 11.88 37 23.76 37 36 C24.79 36 12.58 36 0 36 C0 24.12 0 12.24 0 0 Z " fill="#FBFBFA" transform="translate(738,1009)"/>
<path d="M0 0 C0.33 0 0.66 0 1 0 C1.1689 7.6458 1.3352 15.2916 1.5 22.9375 C1.5477 25.0844 1.5954 27.2314 1.6445 29.4434 C1.8979 41.2983 2.0534 53.1414 2 65 C0.68 63.68 -0.64 62.36 -2 61 C-9.26 60.67 -16.52 60.34 -24 60 C-24 43.5 -24 27 -24 10 C-16.41 10 -8.82 10 -1 10 C-1 7.03 -1 4.06 -1 1 C-0.67 0.67 -0.34 0.34 0 0 Z " fill="#F5F2EC" transform="translate(99,796)"/>
<path d="M0 0 C0 8.58 0 17.16 0 26 C-16.83 26 -33.66 26 -51 26 C-51 18.08 -51 10.16 -51 2 C-34.0681 0.3068 -17.0155 -0.2002 0 0 Z " fill="#F6F6F5" transform="translate(534,576)"/>
<path d="M0 0 C7.92 0 15.84 0 24 0 C24 16.83 24 33.66 24 51 C16.08 51 8.16 51 0 51 C0 34.17 0 17.34 0 0 Z " fill="#FBFCFA" transform="translate(0,907)"/>
<path d="M0 0 C7.92 0 15.84 0 24 0 C24 16.83 24 33.66 24 51 C16.08 51 8.16 51 0 51 C0 34.17 0 17.34 0 0 Z " fill="#FAFBF9" transform="translate(0,602)"/>
<path d="M0 0 C7.92 0 15.84 0 24 0 C24 16.83 24 33.66 24 51 C16.08 51 8.16 51 0 51 C0 34.17 0 17.34 0 0 Z " fill="#636362" transform="translate(0,551)"/>
<path d="M0 0 C7.92 0 15.84 0 24 0 C24 16.83 24 33.66 24 51 C16.08 51 8.16 51 0 51 C0 34.17 0 17.34 0 0 Z " fill="#FAFAF9" transform="translate(0,500)"/>
<path d="M0 0 C7.92 0 15.84 0 24 0 C24 16.83 24 33.66 24 51 C16.08 51 8.16 51 0 51 C0 34.17 0 17.34 0 0 Z " fill="#636362" transform="translate(0,449)"/>
<path d="M0 0 C7.92 0 15.84 0 24 0 C24 16.83 24 33.66 24 51 C16.08 51 8.16 51 0 51 C0 34.17 0 17.34 0 0 Z " fill="#FBFBFB" transform="translate(0,93)"/>
<path d="M0 0 C7.92 0 15.84 0 24 0 C24 16.83 24 33.66 24 51 C16.08 51 8.16 51 0 51 C0 34.17 0 17.34 0 0 Z " fill="#636463" transform="translate(0,42)"/>
<path d="M0 0 C4.95 0 9.9 0 15 0 C15 16.5 15 33 15 50 C2.79 50 -9.42 50 -22 50 C-21.67 49.01 -21.34 48.02 -21 47 C-20.34 47 -19.68 47 -19 47 C-18.505 44.03 -18.505 44.03 -18 41 C-17.34 41 -16.68 41 -16 41 C-16 39.68 -16 38.36 -16 37 C-15.34 37 -14.68 37 -14 37 C-13.01 34.03 -12.02 31.06 -11 28 C-9.35 25.36 -7.7 22.72 -6 20 C-2.8509 11.4472 -2.8509 11.4472 -2 4 C-1.34 2.68 -0.68 1.36 0 0 Z " fill="#FCFBFB" transform="translate(760,806)"/>
<path d="M0 0 C7.92 0 15.84 0 24 0 C24 16.5 24 33 24 50 C16.08 50 8.16 50 0 50 C0 33.5 0 17 0 0 Z " fill="#727072" transform="translate(0,959)"/>
<path d="M0 0 C7.92 0 15.84 0 24 0 C24 16.5 24 33 24 50 C16.08 50 8.16 50 0 50 C0 33.5 0 17 0 0 Z " fill="#646565" transform="translate(0,857)"/>
<path d="M0 0 C7.92 0 15.84 0 24 0 C24 16.5 24 33 24 50 C16.08 50 8.16 50 0 50 C0 33.5 0 17 0 0 Z " fill="#FDFDFC" transform="translate(0,806)"/>
<path d="M0 0 C7.92 0 15.84 0 24 0 C24 16.5 24 33 24 50 C16.08 50 8.16 50 0 50 C0 33.5 0 17 0 0 Z " fill="#636363" transform="translate(0,755)"/>
<path d="M0 0 C7.92 0 15.84 0 24 0 C24 16.5 24 33 24 50 C16.08 50 8.16 50 0 50 C0 33.5 0 17 0 0 Z " fill="#FCFCFB" transform="translate(0,704)"/>
<path d="M0 0 C7.92 0 15.84 0 24 0 C24 16.5 24 33 24 50 C16.08 50 8.16 50 0 50 C0 33.5 0 17 0 0 Z " fill="#636263" transform="translate(0,653)"/>
<path d="M0 0 C7.92 0 15.84 0 24 0 C24 16.5 24 33 24 50 C16.08 50 8.16 50 0 50 C0 33.5 0 17 0 0 Z " fill="#FDFDFC" transform="translate(0,399)"/>
<path d="M0 0 C7.92 0 15.84 0 24 0 C24 16.5 24 33 24 50 C16.08 50 8.16 50 0 50 C0 33.5 0 17 0 0 Z " fill="#646363" transform="translate(0,348)"/>
<path d="M0 0 C7.92 0 15.84 0 24 0 C24 16.5 24 33 24 50 C16.08 50 8.16 50 0 50 C0 33.5 0 17 0 0 Z " fill="#FCFCFB" transform="translate(0,297)"/>
<path d="M0 0 C7.92 0 15.84 0 24 0 C24 16.5 24 33 24 50 C16.08 50 8.16 50 0 50 C0 33.5 0 17 0 0 Z " fill="#636363" transform="translate(0,144)"/>
<path d="M0 0 C7.59 0 15.18 0 23 0 C23 16.5 23 33 23 50 C15.41 50 7.82 50 0 50 C0 33.5 0 17 0 0 Z " fill="#FBFBF9" transform="translate(408,246)"/>
<path d="M0 0 C7.26 0 14.52 0 22 0 C22 16.5 22 33 22 50 C14.74 50 7.48 50 0 50 C0 33.5 0 17 0 0 Z " fill="#FAFBF8" transform="translate(409,348)"/>
<path d="M0 0 C6.93 0 13.86 0 21 0 C22.2939 16.6593 22.0887 33.3038 22 50 C14.74 50 7.48 50 0 50 C0 33.5 0 17 0 0 Z " fill="#676663" transform="translate(75,755)"/>
<path d="M0 0 C8 0 8 0 12 1 C18.583 1.0721 25.1667 1.0839 31.75 1.0625 C37.1254 1.049 37.1254 1.049 42.6094 1.0352 C46.7627 1.0178 46.7627 1.0178 51 1 C51 7.93 51 14.86 51 22 C34.17 22 17.34 22 0 22 C0 14.74 0 7.48 0 0 Z " fill="#F7F7F5" transform="translate(24,274)"/>
<path d="M0 0 C7.92 0 15.84 0 24 0 C24 13.86 24 27.72 24 42 C16.08 42 8.16 42 0 42 C0 28.14 0 14.28 0 0 Z " fill="#FBFBFB" transform="translate(0,0)"/>
<path d="M0 0 C0.66 0 1.32 0 2 0 C2 16.17 2 32.34 2 49 C-12.19 49 -26.38 49 -41 49 C-36.3932 43.2415 -31.6772 38.3386 -25 35 C-24.67 33.35 -24.34 31.7 -24 30 C-22.68 30 -21.36 30 -20 30 C-19.34 28.68 -18.68 27.36 -18 26 C-15.69 23.03 -13.38 20.06 -11 17 C-7.771 13.0557 -7.771 13.0557 -6 8 C-4.02 5.36 -2.04 2.72 0 0 Z " fill="#FBFAF8" transform="translate(735,858)"/>
<path d="M0 0 C6.27 0 12.54 0 19 0 C19.6818 16.6797 20.1128 33.3061 20 50 C13.4 50 6.8 50 0 50 C0 33.5 0 17 0 0 Z " fill="#686865" transform="translate(75,653)"/>
<path d="M0 0 C7.26 0 14.52 0 22 0 C22 12.54 22 25.08 22 38 C19.36 38.33 16.72 38.66 14 39 C13.505 39.495 13.505 39.495 13 40 C12.67 43.63 12.34 47.26 12 51 C8.37 51 4.74 51 1 51 C0.67 34.17 0.34 17.34 0 0 Z " fill="#F9F8F4" transform="translate(409,449)"/>
<path d="M0 0 C5.94 0 11.88 0 18 0 C19.854 9.27 19.0992 18.8816 19.0625 28.3125 C19.058 30.4839 19.0535 32.6554 19.0488 34.8926 C19.037 40.2617 19.0191 45.6309 19 51 C12.73 51 6.46 51 0 51 C0 34.17 0 17.34 0 0 Z " fill="#686766" transform="translate(75,551)"/>
<path d="M0 0 C5.94 0 11.88 0 18 0 C18.1936 8.3124 18.3802 16.6249 18.5625 24.9375 C18.6186 27.3139 18.6746 29.6903 18.7324 32.1387 C18.8602 38.0917 18.9347 44.0459 19 50 C18.67 50.33 18.34 50.66 18 51 C12.06 51 6.12 51 0 51 C0 34.17 0 17.34 0 0 Z " fill="#F9F7F6" transform="translate(75,602)"/>
<path d="M0 0 C8.3944 -0.0825 16.7888 -0.165 25.4375 -0.25 C28.091 -0.2864 30.7444 -0.3228 33.4783 -0.3604 C39.32 -0.3886 45.1617 -0.2026 51 0 C51.495 1.98 51.495 1.98 52 4 C51.34 4.99 50.68 5.98 50 7 C36.5439 13.614 36.5439 13.614 31 15 C30.67 15.66 30.34 16.32 30 17 C25.05 17.495 25.05 17.495 20 18 C13.0745 18.7764 13.0745 18.7764 7 21 C4.5112 30.9552 3.8511 40.7872 3 51 C2.01 51 1.02 51 0 51 C0 34.17 0 17.34 0 0 Z " fill="#706F6C" transform="translate(24,907)"/>
<path d="M0 0 C5.94 0 11.88 0 18 0 C18 16.5 18 33 18 50 C12.06 50 6.12 50 0 50 C0 33.5 0 17 0 0 Z " fill="#FAFAF8" transform="translate(413,653)"/>
<path d="M0 0 C7.59 0 15.18 0 23 0 C23 15.6478 20.0299 26.0635 13 40 C9 46 9 46 5 50 C3.35 50 1.7 50 0 50 C0 33.5 0 17 0 0 Z " fill="#6C6B69" transform="translate(75,857)"/>
<path d="M0 0 C5.28 0 10.56 0 16 0 C16.33 0.33 16.66 0.66 17 1 C17.294 8.2321 17.518 15.4523 17.6875 22.6875 C17.7474 24.7313 17.8074 26.7751 17.8691 28.8809 C18.2387 44.284 18.2387 44.284 16 51 C10.72 51 5.44 51 0 51 C0 34.17 0 17.34 0 0 Z " fill="#696663" transform="translate(75,449)"/>
<path d="M0 0 C0 16.83 0 33.66 0 51 C-5.94 51 -11.88 51 -18 51 C-18 34.5 -18 18 -18 1 C-2 0 -2 0 0 0 Z " fill="#6B6966" transform="translate(93,347)"/>
<path d="M0 0 C5.61 0 11.22 0 17 0 C17 16.5 17 33 17 50 C11.39 50 5.78 50 0 50 C0 33.5 0 17 0 0 Z " fill="#FBFBF9" transform="translate(414,755)"/>
<path d="M0 0 C5.28 0 10.56 0 16 0 C16.8397 10.9767 17.1636 21.8668 17.1875 32.875 C17.2017 35.8837 17.2159 38.8923 17.2305 41.9922 C17.1544 44.3048 17.0784 46.6173 17 49 C11.9228 51.5386 5.6765 50 0 50 C0 33.5 0 17 0 0 Z " fill="#F9F8F5" transform="translate(75,501)"/>
<path d="M0 0 C1 4 1 4 2 11.125 C2.5358 17.3331 2.5358 17.3331 4 20 C4 22.97 4 25.94 4 29 C-13.82 29 -31.64 29 -50 29 C-44.5752 23.5752 -39.7016 21.0165 -32.875 17.5625 C-21.7839 11.9237 -10.8765 6.0425 0 0 Z " fill="#D9CEBB" transform="translate(685,1016)"/>
<path d="M0 0 C3.96 0 7.92 0 12 0 C16.8119 16.8418 17.1341 33.5686 17 51 C11.39 51 5.78 51 0 51 C0 34.17 0 17.34 0 0 Z " fill="#6A6966" transform="translate(585,296)"/>
<path d="M0 0 C0.33 0 0.66 0 1 0 C1 33.33 1 66.66 1 101 C13.87 101 26.74 101 40 101 C39.67 92.42 39.34 83.84 39 75 C39.33 75 39.66 75 40 75 C40 76.98 40 78.96 40 81 C40.99 81 41.98 81 43 81 C42.34 87.93 41.68 94.86 41 102 C27.8 102 14.6 102 1 102 C1 118.5 1 135 1 152 C13.54 152 26.08 152 39 152 C39 152.33 39 152.66 39 153 C26.46 153 13.92 153 1 153 C1 159.6 1 166.2 1 173 C0.67 173 0.34 173 0 173 C0 166.4 0 159.8 0 153 C-33 153 -66 153 -100 153 C-100 169.5 -100 186 -100 203 C-100.33 203 -100.66 203 -101 203 C-101 186.5 -101 170 -101 153 C-117.83 153 -134.66 153 -152 153 C-152 152.67 -152 152.34 -152 152 C-135.17 152 -118.34 152 -101 152 C-101 143.09 -101 134.18 -101 125 C-100.67 125 -100.34 125 -100 125 C-100 133.91 -100 142.82 -100 152 C-67 152 -34 152 0 152 C0 135.5 0 119 0 102 C-55.77 102 -111.54 102 -169 102 C-169 101.67 -169 101.34 -169 101 C-163.72 101 -158.44 101 -153 101 C-153 84.5 -153 68 -153 51 C-152.67 51 -152.34 51 -152 51 C-152 67.5 -152 84 -152 101 C-135.17 101 -118.34 101 -101 101 C-101 84.5 -101 68 -101 51 C-100.67 51 -100.34 51 -100 51 C-100 67.5 -100 84 -100 101 C-67 101 -34 101 0 101 C0 67.67 0 34.34 0 0 Z " fill="#ABA9AA" transform="translate(584,602)"/>
<path d="M0 0 C3.3 0 6.6 0 10 0 C9.7937 3.4031 9.5875 6.8062 9.375 10.3125 C9.5813 13.8394 9.7875 17.3663 10 21 C13.3 21.99 16.6 22.98 20 24 C20.9766 30.1992 20.9766 30.1992 20.625 37.6875 C20.5348 40.1664 20.4445 42.6452 20.3516 45.1992 C20.2355 47.1135 20.1195 49.0277 20 51 C13.73 51 7.46 51 1 51 C0.3319 33.988 -0.1158 17.0254 0 0 Z " fill="#F7F5F3" transform="translate(411,551)"/>
<path d="M0 0 C4.95 0 9.9 0 15 0 C15 16.5 15 33 15 50 C10.05 50 5.1 50 0 50 C0 33.5 0 17 0 0 Z " fill="#F8F5F1" transform="translate(75,297)"/>
<path d="M0 0 C16.83 0 33.66 0 51 0 C51 3.3 51 6.6 51 10 C43.5 12.0625 43.5 12.0625 35 13 C32.36 13.33 29.72 13.66 27 14 C26.67 14.33 26.34 14.66 26 15 C20.0047 16.0278 14.0043 17.0263 8 18 C6.35 18.33 4.7 18.66 3 19 C2.01 18.67 1.02 18.34 0 18 C0 12.06 0 6.12 0 0 Z " fill="#696865" transform="translate(24,195)"/>
<path d="M0 0 C16.5 0 33 0 50 0 C50 2.64 50 5.28 50 8 C41.8454 10.7182 33.1971 12.1748 24.8125 14 C18.4849 15.4361 12.2149 17.1355 6 19 C4.02 19 2.04 19 0 19 C0 12.73 0 6.46 0 0 Z " fill="#F8F6F2" transform="translate(279,0)"/>
<path d="M0 0 C5.61 0 11.22 0 17 0 C16.5467 4.7505 16.0872 9.5004 15.625 14.25 C15.3698 16.8952 15.1145 19.5403 14.8516 22.2656 C13.7003 32.7222 12.7377 40.5246 8 50 C5.36 50 2.72 50 0 50 C0 33.5 0 17 0 0 Z " fill="#F7F5F0" transform="translate(585,348)"/>
<path d="M0 0 C3.96 0 7.92 0 12 0 C12 16.83 12 33.66 12 51 C7.71 51 3.42 51 -1 51 C-1.0268 42.875 -1.0468 34.75 -1.0625 26.625 C-1.0709 24.3047 -1.0793 21.9844 -1.0879 19.5938 C-1.1133 2.2266 -1.1133 2.2266 0 0 Z " fill="#686861" transform="translate(410,500)"/>
<path d="M0 0 C6.3538 -0.0738 12.7083 -0.0835 19.0625 -0.0625 C22.5804 -0.0535 26.0982 -0.0445 29.7227 -0.0352 C33.8199 -0.0178 33.8199 -0.0178 38 0 C38 0.33 38 0.66 38 1 C25.79 1 13.58 1 1 1 C1 17.5 1 34 1 51 C13.21 51 25.42 51 38 51 C38 51.33 38 51.66 38 52 C25.79 52 13.58 52 1 52 C1 68.5 1 85 1 102 C13.21 102 25.42 102 38 102 C38 102.33 38 102.66 38 103 C25.79 103 13.58 103 1 103 C1 131.38 1 159.76 1 189 C0.67 189 0.34 189 0 189 C-1.1927 160.2658 -0.7106 131.7396 0 103 C-16.5 103 -33 103 -50 103 C-49.8863 113.8127 -49.7596 124.625 -49.625 135.4375 C-49.5941 138.51 -49.5631 141.5825 -49.5312 144.748 C-49.4926 147.6968 -49.4539 150.6455 -49.4141 153.6836 C-49.3826 156.4015 -49.3512 159.1194 -49.3188 161.9197 C-49.1871 169.3819 -49.1871 169.3819 -47 178 C-46.505 183.445 -46.505 183.445 -46 189 C-46.66 189 -47.32 189 -48 189 C-48.495 184.545 -48.495 184.545 -49 180 C-49.66 177.36 -50.32 174.72 -51 172 C-51 169.36 -51 166.72 -51 164 C-51.66 163.67 -52.32 163.34 -53 163 C-52.67 162.67 -52.34 162.34 -52 162 C-51.8391 157.6671 -51.748 153.3315 -51.6836 148.9961 C-51.6417 146.3374 -51.5998 143.6787 -51.5566 140.9395 C-51.5173 138.1338 -51.478 135.3282 -51.4375 132.4375 C-51.3943 129.628 -51.3511 126.8185 -51.3066 123.9238 C-51.2001 116.9493 -51.0995 109.9746 -51 103 C-67.5 103 -84 103 -101 103 C-101 119.5 -101 136 -101 153 C-101.33 153 -101.66 153 -102 153 C-102 136.5 -102 120 -102 103 C-118.5 103 -135 103 -152 103 C-152 102.67 -152 102.34 -152 102 C-118.67 102 -85.34 102 -51 102 C-51 96.39 -51 90.78 -51 85 C-50.67 85 -50.34 85 -50 85 C-50 90.61 -50 96.22 -50 102 C-33.5 102 -17 102 0 102 C0 85.5 0 69 0 52 C-3.3 52 -6.6 52 -10 52 C-10 51.67 -10 51.34 -10 51 C-6.7 51 -3.4 51 0 51 C-0.0838 47.4022 -0.1676 43.8045 -0.2539 40.0977 C-0.357 35.4193 -0.4599 30.7409 -0.5625 26.0625 C-0.6186 23.6861 -0.6746 21.3097 -0.7324 18.8613 C-0.8602 12.9083 -0.9347 6.9541 -1 1 C-0.67 0.67 -0.34 0.34 0 0 Z " fill="#B4B0AD" transform="translate(737,856)"/>
<path d="M0 0 C0.33 0 0.66 0 1 0 C1 6.6 1 13.2 1 20 C8.26 20 15.52 20 23 20 C23 20.33 23 20.66 23 21 C15.74 21 8.48 21 1 21 C1 37.5 1 54 1 71 C8.26 71 15.52 71 23 71 C23 54.83 23 38.66 23 22 C23.66 22 24.32 22 25 22 C25.7168 35.3504 26.2026 48.6293 26 62 C25.67 62.33 25.34 62.66 25 63 C24.67 65.97 24.34 68.94 24 72 C16.41 72 8.82 72 1 72 C1 88.5 1 105 1 122 C8.26 122 15.52 122 23 122 C23 122.33 23 122.66 23 123 C15.74 123 8.48 123 1 123 C1 139.5 1 156 1 173 C0.67 173 0.34 173 0 173 C0 156.5 0 140 0 123 C-24.42 123 -48.84 123 -74 123 C-74 122.67 -74 122.34 -74 122 C-70.0606 122.0619 -66.1213 122.1237 -62.0625 122.1875 C-58.0417 122.2507 -54.0153 122.22 -50 122 C-49.505 120.515 -49.505 120.515 -49 119 C-49 119.99 -49 120.98 -49 122 C-32.83 122 -16.66 122 0 122 C0 105.5 0 89 0 72 C-24.42 72 -48.84 72 -74 72 C-74 71.67 -74 71.34 -74 71 C-66.08 71 -58.16 71 -50 71 C-50 54.5 -50 38 -50 21 C-57.92 21 -65.84 21 -74 21 C-74 20.67 -74 20.34 -74 20 C-49.58 20 -25.16 20 0 20 C0 13.4 0 6.8 0 0 Z M-49 21 C-49 37.5 -49 54 -49 71 C-32.83 71 -16.66 71 0 71 C0 54.5 0 38 0 21 C-16.17 21 -32.34 21 -49 21 Z " fill="#A9A39C" transform="translate(74,734)"/>
<path d="M0 0 C16.5 0 33 0 50 0 C50 2.97 50 5.94 50 9 C46.8444 9.1237 43.6888 9.2475 40.4375 9.375 C31.4687 9.8651 22.8728 10.7325 14 12 C9.6726 12.4034 5.3394 12.7589 1 13 C0.67 12.67 0.34 12.34 0 12 C0 8.04 0 4.08 0 0 Z " fill="#F6F4F1" transform="translate(381,857)"/>
<path d="M0 0 C11.5 -0.4375 11.5 -0.4375 22 0 C22 8.58 22 17.16 22 26 C21.01 25.67 20.02 25.34 19 25 C19 24.34 19 23.68 19 23 C18.01 23 17.02 23 16 23 C16 22.34 16 21.68 16 21 C14.68 20.67 13.36 20.34 12 20 C7 18 2 16 -3 14 C-4.32 13.67 -5.64 13.34 -7 13 C-7 12.34 -7 11.68 -7 11 C-7.66 11 -8.32 11 -9 11 C-8.67 9.68 -8.34 8.36 -8 7 C-5.36 4.69 -2.72 2.38 0 0 Z " fill="#FAFAF8" transform="translate(664,501)"/>
<path d="M0 0 C6.27 0 12.54 0 19 0 C19 16.5 19 33 19 50 C18.01 50 17.02 50 16 50 C12.6594 39.4721 10.1656 28.8278 8 18 C6.68 15.36 5.36 12.72 4 10 C4 8.68 4 7.36 4 6 C3.34 6 2.68 6 2 6 C1.34 4.02 0.68 2.04 0 0 Z " fill="#F5F7F5" transform="translate(756,602)"/>
<path d="M0 0 C0.99 0.495 0.99 0.495 2 1 C2.1666 6.5941 2.1896 12.1925 2.1602 17.7891 C2.1492 21.2914 2.1382 24.7938 2.127 28.4023 C2.1057 32.1058 2.0844 35.8093 2.0625 39.625 C1.8516 65.9679 1.8516 65.9679 2.4961 92.2969 C3.3914 113.0908 3.0496 133.9061 2.9795 154.7158 C2.9615 160.5736 2.9494 166.4313 2.9375 172.2891 C2.9259 175.7613 2.9143 179.2336 2.9023 182.811 C2.7425 190.5114 2.7425 190.5114 4 196 C4 208 4 208 3 210 C3 212.97 3 215.94 3 219 C3 220.32 3 221.64 3 223 C3.33 224.32 3.66 225.64 4 227 C3.67 229.97 3.34 232.94 3 236 C3.495 238.475 3.495 238.475 4 241 C4.1222 248.3323 4.1279 255.6678 4 263 C3.34 263.33 2.68 263.66 2 264 C-1.0864 230.0493 -0.1382 195.6928 -0.0977 161.6211 C-0.0958 156.9266 -0.0944 152.2321 -0.0934 147.5376 C-0.0896 135.3283 -0.0798 123.1189 -0.0687 110.9096 C-0.0583 98.3922 -0.0538 85.8748 -0.0488 73.3574 C-0.0382 48.9049 -0.0212 24.4525 0 0 Z " fill="#715B40" transform="translate(191,252)"/>
<path d="M0 0 C2.5327 7.5982 1.0501 17.0903 1 25.125 C0.9547 32.4189 0.9526 39.7056 1 47 C1.33 47.33 1.66 47.66 2 48 C2 54 2 60 2 66 C2.1501 70.5903 2.3143 75.1801 2.4883 79.7695 C3.1074 98.3684 3.1838 116.9546 3.1875 135.5625 C3.1997 138.9018 3.212 142.2411 3.2246 145.6816 C3.2265 148.8611 3.2285 152.0406 3.2305 155.3164 C3.2346 158.1879 3.2387 161.0593 3.2429 164.0178 C3 171 3 171 1 177 C0.67 177 0.34 177 0 177 C0.0103 173.9075 0.0206 170.8151 0.0312 167.6289 C0.0312 148.7302 -0.2632 129.8344 -0.5 110.9375 C-0.8309 82.9582 -1.1053 54.9814 -1.125 27 C-1.1295 24.3509 -1.134 21.7018 -1.1387 18.9724 C-1.1338 12.9814 -1.074 6.9905 -1 1 C-0.67 0.67 -0.34 0.34 0 0 Z " fill="#765E45" transform="translate(197,786)"/>
<path d="M0 0 C9 1 9 1 12 2 C23.2252 2.2738 33.8856 1.5199 45 0 C46.98 0 48.96 0 51 0 C51 2.64 51 5.28 51 8 C34.17 8 17.34 8 0 8 C0 5.36 0 2.72 0 0 Z " fill="#F2F2F0" transform="translate(432,237)"/>
<path d="M0 0 C6.3538 -0.0738 12.7083 -0.0835 19.0625 -0.0625 C22.5804 -0.0535 26.0982 -0.0445 29.7227 -0.0352 C33.8199 -0.0178 33.8199 -0.0178 38 0 C38 0.33 38 0.66 38 1 C25.79 1 13.58 1 1 1 C1 17.5 1 34 1 51 C13.21 51 25.42 51 38 51 C38 51.33 38 51.66 38 52 C25.79 52 13.58 52 1 52 C1 68.5 1 85 1 102 C13.21 102 25.42 102 38 102 C38 102.33 38 102.66 38 103 C25.79 103 13.58 103 1 103 C1 131.38 1 159.76 1 189 C0.67 189 0.34 189 0 189 C-1.1513 159.3959 -0.9312 129.8637 -0.5625 100.25 C-0.5091 95.5482 -0.4564 90.8464 -0.4043 86.1445 C-0.2768 74.7629 -0.1408 63.3814 0 52 C-3.3 52 -6.6 52 -10 52 C-10 51.67 -10 51.34 -10 51 C-6.7 51 -3.4 51 0 51 C-0.1257 45.6033 -0.1257 45.6033 -0.2539 40.0977 C-0.357 35.4193 -0.4599 30.7409 -0.5625 26.0625 C-0.6186 23.6861 -0.6746 21.3097 -0.7324 18.8613 C-0.8602 12.9083 -0.9347 6.9541 -1 1 C-0.67 0.67 -0.34 0.34 0 0 Z " fill="#A9A8A7" transform="translate(737,856)"/>
<path d="M0 0 C9.24 0 18.48 0 28 0 C27.01 1.485 27.01 1.485 26 3 C25.34 3 24.68 3 24 3 C23.67 3.99 23.34 4.98 23 6 C18 9 18 9 14 11 C13.67 11.66 13.34 12.32 13 13 C10.03 14.32 7.06 15.64 4 17 C2.02 17.99 2.02 17.99 0 19 C0 12.73 0 6.46 0 0 Z " fill="#6A6764" transform="translate(534,449)"/>
<path d="M0 0 C0.33 0 0.66 0 1 0 C1 13.53 1 27.06 1 41 C17.5 41 34 41 51 41 C51 27.47 51 13.94 51 0 C51.33 0 51.66 0 52 0 C53.0074 31.5699 52.9645 63.0483 52.5625 94.625 C52.5091 99.2513 52.4564 103.8776 52.4043 108.5039 C52.2772 119.6694 52.1412 130.8347 52 142 C51.67 142 51.34 142 51 142 C51 109 51 76 51 42 C34.5 42 18 42 1 42 C1 60.15 1 78.3 1 97 C0.67 97 0.34 97 0 97 C0 64.99 0 32.98 0 0 Z " fill="#AFADAD" transform="translate(585,0)"/>
<path d="M0 0 C0.33 0 0.66 0 1 0 C1 8.91 1 17.82 1 27 C46.87 27 92.74 27 140 27 C140 27.33 140 27.66 140 28 C127.46 28 114.92 28 102 28 C102 34.6 102 41.2 102 48 C101.67 48 101.34 48 101 48 C101 41.4 101 34.8 101 28 C68 28 35 28 1 28 C1 44.5 1 61 1 78 C0.67 78 0.34 78 0 78 C0 61.5 0 45 0 28 C-16.83 28 -33.66 28 -51 28 C-51 27.67 -51 27.34 -51 27 C-34.17 27 -17.34 27 0 27 C0 18.09 0 9.18 0 0 Z " fill="#A4A3A4" transform="translate(483,727)"/>
<path d="M0 0 C0.33 0 0.66 0 1 0 C1.33 50.82 1.66 101.64 2 154 C-35.62 153.505 -35.62 153.505 -74 153 C-74 152.67 -74 152.34 -74 152 C-66.08 152 -58.16 152 -50 152 C-50 135.5 -50 119 -50 102 C-49.67 102 -49.34 102 -49 102 C-49 118.5 -49 135 -49 152 C-32.83 152 -16.66 152 0 152 C0 101.84 0 51.68 0 0 Z " fill="#B3B2B1" transform="translate(74,551)"/>
<path d="M0 0 C0.66 0 1.32 0 2 0 C1.9843 3.0846 1.9686 6.1693 1.9524 9.3474 C1.8983 20.7396 1.8637 32.1319 1.8352 43.5242 C1.8201 48.4646 1.7996 53.4051 1.7737 58.3455 C1.7375 65.427 1.7203 72.5083 1.707 79.5898 C1.6915 81.8158 1.6761 84.0418 1.6601 86.3352 C1.6595 91.558 1.8124 96.7805 2 102 C2.99 102.33 3.98 102.66 5 103 C4.01 103 3.02 103 2 103 C2 119.17 2 135.34 2 152 C1.67 152 1.34 152 1 152 C-0.0625 119.1606 -0.1182 86.3526 -0.0625 53.5 C-0.0575 48.2865 -0.0529 43.0729 -0.0488 37.8594 C-0.0379 25.2396 -0.0208 12.6198 0 0 Z " fill="#78756D" transform="translate(226,448)"/>
<path d="M0 0 C0.33 0 0.66 0 1 0 C0.9884 3.4534 0.9768 6.9068 0.9648 10.4648 C0.9555 14.9557 0.9464 19.4466 0.9375 23.9375 C0.9291 26.2185 0.9207 28.4995 0.9121 30.8496 C0.9036 36.5665 0.9473 42.2834 1 48 C1.33 48.33 1.66 48.66 2 49 C2.1006 54.27 2.1297 59.5415 2.125 64.8125 C2.1289 69.1844 2.1289 69.1844 2.1328 73.6445 C2 81 2 81 1 85 C1 86.65 1 88.3 1 90 C1.33 90.33 1.66 90.66 2 91 C2.367 112.8989 2.367 112.8989 0 120 C0.66 120 1.32 120 2 120 C1.67 121.32 1.34 122.64 1 124 C-0.485 124.99 -0.485 124.99 -2 126 C-3.32 125.67 -4.64 125.34 -6 125 C-3.525 124.505 -3.525 124.505 -1 124 C-0.5614 114.9477 -0.4492 106.0836 -0.5469 97.0312 C-0.5563 94.3049 -0.5658 91.5786 -0.5755 88.7697 C-0.6103 80.0128 -0.6791 71.2566 -0.75 62.5 C-0.7998 53.7435 -0.8427 44.9869 -0.8817 36.2303 C-0.9083 30.7672 -0.9426 25.304 -0.985 19.8409 C-1.0265 13.5608 -1.0188 7.2803 -1 1 C-0.67 0.67 -0.34 0.34 0 0 Z " fill="#705840" transform="translate(379,680)"/>
<path d="M0 0 C12.6387 1.149 19.4695 3.9797 30 11 C30 11.33 30 11.66 30 12 C20.1 12 10.2 12 0 12 C0 8.04 0 4.08 0 0 Z " fill="#F5F4F1" transform="translate(534,233)"/>
<path d="M0 0 C0.33 0 0.66 0 1 0 C1 33.33 1 66.66 1 101 C13.87 101 26.74 101 40 101 C39.505 88.13 39.505 88.13 39 75 C39.33 75 39.66 75 40 75 C40 76.98 40 78.96 40 81 C40.99 81 41.98 81 43 81 C42.34 87.93 41.68 94.86 41 102 C27.8 102 14.6 102 1 102 C1 118.5 1 135 1 152 C0.67 152 0.34 152 0 152 C0.0232 148.4022 0.0464 144.8045 0.0703 141.0977 C0.0891 136.4193 0.1073 131.7409 0.125 127.0625 C0.1418 124.6861 0.1585 122.3097 0.1758 119.8613 C0.1928 113.9073 0.1054 107.9531 0 102 C-0.66 101.67 -1.32 101.34 -2 101 C-1.34 101 -0.68 101 0 101 C0 67.67 0 34.34 0 0 Z " fill="#B7B3B3" transform="translate(584,602)"/>
<path d="M0 0 C0.33 0 0.66 0 1 0 C1 6.6 1 13.2 1 20 C8.26 20 15.52 20 23 20 C23 20.33 23 20.66 23 21 C15.74 21 8.48 21 1 21 C1 37.5 1 54 1 71 C0.67 71 0.34 71 0 71 C0 54.5 0 38 0 21 C-16.17 21 -32.34 21 -49 21 C-49 37.5 -49 54 -49 71 C-49.33 71 -49.66 71 -50 71 C-50 54.5 -50 38 -50 21 C-57.92 21 -65.84 21 -74 21 C-74 20.67 -74 20.34 -74 20 C-49.58 20 -25.16 20 0 20 C0 13.4 0 6.8 0 0 Z " fill="#B4B3B2" transform="translate(74,734)"/>
<path d="M0 0 C15.18 0 30.36 0 46 0 C39.7069 3.1466 32.9381 3.1526 26 4 C23.69 4.66 21.38 5.32 19 6 C3.7692 9 3.7692 9 0 9 C0 6.03 0 3.06 0 0 Z " fill="#F4EFE8" transform="translate(75,195)"/>
<path d="M0 0 C0.33 0 0.66 0 1 0 C1.1678 8.9583 1.3343 17.9166 1.5 26.875 C1.5477 29.4145 1.5954 31.9539 1.6445 34.5703 C1.6896 37.0195 1.7348 39.4688 1.7812 41.9922 C1.8231 44.244 1.865 46.4958 1.9082 48.8159 C1.9883 54.2101 2 59.6052 2 65 C1.67 65 1.34 65 1 65 C0.67 62.36 0.34 59.72 0 57 C-1.32 56.34 -2.64 55.68 -4 55 C-3.34 55 -2.68 55 -2 55 C-2.165 52.2981 -2.33 49.5963 -2.5 46.8125 C-3.0763 33.1964 -3.0849 19.6253 -3 6 C-8.28 6 -13.56 6 -19 6 C-19 5.67 -19 5.34 -19 5 C-16.0506 5.1031 -13.1012 5.2063 -10.0625 5.3125 C-7.0719 5.2094 -4.0812 5.1062 -1 5 C-0.67 3.35 -0.34 1.7 0 0 Z " fill="#CDC1B3" transform="translate(94,495)"/>
<path d="M0 0 C1.65 0 3.3 0 5 0 C5 16.5 5 33 5 50 C3.68 50 2.36 50 1 50 C0.67 33.5 0.34 17 0 0 Z " fill="#DFDCD7" transform="translate(223,195)"/>
<path d="M0 0 C0.33 0 0.66 0 1 0 C1.1691 7.7708 1.3354 15.5416 1.5 23.3125 C1.5477 25.4904 1.5954 27.6682 1.6445 29.9121 C1.8555 39.9615 1.9972 49.9903 1.9688 60.043 C1.9791 62.6688 1.9894 65.2946 2 68 C2.33 68.33 2.66 68.66 3 69 C3.2593 79.1429 3.1852 89.2916 3.1875 99.4375 C3.1997 102.3256 3.212 105.2138 3.2246 108.1895 C3.2265 110.9306 3.2285 113.6718 3.2305 116.4961 C3.2346 119.0348 3.2387 121.5735 3.2429 124.1892 C3.1628 126.1068 3.0826 128.0243 3 130 C2.01 130.99 2.01 130.99 1 132 C0 127 0 127 0 116 C0.495 115.505 0.495 115.505 1 115 C1.2382 110.3148 1.4153 105.6264 1.5625 100.9375 C1.6463 98.3478 1.7301 95.758 1.8164 93.0898 C1.877 91.0802 1.9376 89.0705 2 87 C1.34 87 0.68 87 0 87 C0 58.29 0 29.58 0 0 Z " fill="#7E654A" transform="translate(375,499)"/>
<path d="M0 0 C11.22 0 22.44 0 34 0 C33.01 0.99 32.02 1.98 31 3 C25.9825 4.115 20.9477 5.1718 15.875 6 C9.7589 6.9307 9.7589 6.9307 3 9 C2.01 8.67 1.02 8.34 0 8 C0 5.36 0 2.72 0 0 Z " fill="#6B6862" transform="translate(330,0)"/>
<path d="M0 0 C0.66 0.33 1.32 0.66 2 1 C3.4929 15.1256 3.1476 29.3754 3.125 43.5625 C3.1289 46.0201 3.1327 48.4777 3.1367 51.0098 C3.1267 69.2397 3.1267 69.2397 2 76 C1.67 76 1.34 76 1 76 C-1.0529 63.6829 -0.0075 50.8998 0.0625 38.4414 C0.2147 29.3793 0.2147 29.3793 -1 22 C-1.0805 15.0005 -1.0864 7.9995 -1 1 C-0.67 0.67 -0.34 0.34 0 0 Z " fill="#736142" transform="translate(373,309)"/>
<path d="M0 0 C0.33 0 0.66 0 1 0 C2.5448 7.7238 2.3281 15.4459 2.5 23.3125 C2.79 36.6902 2.79 36.6902 4 50 C4.33 50.33 4.66 50.66 5 51 C5.074 59.357 5.092 67.7057 5.0625 76.0625 C5.058 78.4428 5.0535 80.823 5.0488 83.2754 C5.037 89.1836 5.0191 95.0918 5 101 C4.34 101 3.68 101 3 101 C3.0348 97.4976 3.0696 93.9952 3.1055 90.3867 C3.1336 85.8203 3.1609 81.2539 3.1875 76.6875 C3.2126 74.3756 3.2378 72.0636 3.2637 69.6816 C3.2896 63.7872 3.1568 57.8925 3 52 C2.01 51.01 1.02 50.02 0 49 C-0.2196 40.7442 -0.2772 32.5654 -0.1875 24.3125 C-0.174 21.989 -0.1604 19.6654 -0.1465 17.2715 C-0.111 11.5142 -0.0572 5.7571 0 0 Z " fill="#706B63" transform="translate(223,297)"/>
<path d="M0 0 C14.52 0 29.04 0 44 0 C36.5746 3.7127 29.1323 3.083 21 3 C21 3.66 21 4.32 21 5 C10.605 5.495 10.605 5.495 0 6 C0 4.02 0 2.04 0 0 Z " fill="#F3F0EB" transform="translate(432,144)"/>
<path d="M0 0 C5.28 0 10.56 0 16 0 C16 6.27 16 12.54 16 19 C14.68 17.35 13.36 15.7 12 14 C9.36 11.69 6.72 9.38 4 7 C4 6.34 4 5.68 4 5 C3.34 5 2.68 5 2 5 C1.34 3.35 0.68 1.7 0 0 Z " fill="#F7F6F6" transform="translate(721,551)"/>
<path d="M0 0 C0.33 0 0.66 0 1 0 C1 2.97 1 5.94 1 9 C8.26 9 15.52 9 23 9 C23 9.33 23 9.66 23 10 C15.74 10 8.48 10 1 10 C1 26.5 1 43 1 60 C0.67 60 0.34 60 0 60 C0 43.5 0 27 0 10 C-24.42 10 -48.84 10 -74 10 C-74 9.67 -74 9.34 -74 9 C-70.0606 9.0619 -66.1213 9.1237 -62.0625 9.1875 C-58.0417 9.2507 -54.0153 9.22 -50 9 C-49.67 8.01 -49.34 7.02 -49 6 C-49 6.99 -49 7.98 -49 9 C-32.83 9 -16.66 9 0 9 C0 6.03 0 3.06 0 0 Z " fill="#ADACAD" transform="translate(74,847)"/>
<path d="M0 0 C58.4043 -0.1915 58.4043 -0.1915 85 1 C84.34 1.66 83.68 2.32 83 3 C72.2586 4.5719 61.8486 5.2107 51 5 C51 3.68 51 2.36 51 1 C34.17 1 17.34 1 0 1 C0 0.67 0 0.34 0 0 Z " fill="#DDD9D3" transform="translate(432,856)"/>
<path d="M0 0 C0.66 0 1.32 0 2 0 C2.33 2.64 2.66 5.28 3 8 C3.66 8 4.32 8 5 8 C8 15 8 15 10 26 C6.7 26 3.4 26 0 26 C0 17.42 0 8.84 0 0 Z " fill="#EBE8E3" transform="translate(585,270)"/>
<path d="M0 0 C4.62 0 9.24 0 14 0 C12 6 12 6 7 11 C6.01 11.33 5.02 11.66 4 12 C3.67 13.32 3.34 14.64 3 16 C2.67 16.66 2.34 17.32 2 18 C1.34 18 0.68 18 0 18 C0 12.06 0 6.12 0 0 Z " fill="#64625E" transform="translate(585,806)"/>
</svg>